<svg width="34" height="39" viewBox="0 0 34 39" fill="none" xmlns="http://www.w3.org/2000/svg">
<path d="M33.919 19.4287V19.5839C33.8781 24.7476 31.7968 29.6859 28.1286 33.3227C24.4604 36.9595 19.5026 39.0002 14.3355 39H3.56648C2.62059 39 1.71345 38.6245 1.04461 37.9561C0.375761 37.2877 0 36.3811 0 35.4358V23.1268C1.27678 24.1837 2.68421 25.0722 4.18767 25.7705H4.24123C4.45008 25.8722 4.65892 25.9632 4.87312 26.0541C6.45803 26.728 8.1093 27.2338 9.7998 27.5633C10.3728 27.6811 10.9618 27.7828 11.567 27.863C11.567 27.863 14.4159 28.3072 19.7977 27.863C19.869 27.8683 19.9406 27.8683 20.0119 27.863C20.2729 27.8315 20.5222 27.7365 20.7379 27.5863C20.9535 27.436 21.129 27.2352 21.2489 27.0014C21.2811 26.9372 21.3132 26.873 21.34 26.8034C21.4506 26.5131 21.4487 26.1919 21.3348 25.9029C21.2209 25.6138 21.0031 25.3777 20.7241 25.2407L20.6706 25.214H20.767C21.0597 25.219 21.3466 25.1325 21.5876 24.9665C21.8287 24.8005 22.0117 24.5632 22.1111 24.2881C22.1135 24.2614 22.1135 24.2345 22.1111 24.2078C22.1349 24.1259 22.1493 24.0415 22.1539 23.9563C22.1566 23.9314 22.1566 23.9062 22.1539 23.8813C22.1459 23.6312 22.0672 23.3884 21.9269 23.181C21.7867 22.9736 21.5907 22.8101 21.3614 22.7093H21.3239C21.5196 22.6889 21.7131 22.6513 21.9023 22.5969C22.1025 22.5508 22.2851 22.448 22.4285 22.3009C22.5719 22.1538 22.6699 21.9686 22.7109 21.7674C22.7158 21.7373 22.7158 21.7066 22.7109 21.6764C22.7134 21.6479 22.7134 21.6193 22.7109 21.5908C22.7109 21.5908 22.7109 21.5533 22.7109 21.5373C22.7162 21.4785 22.7162 21.4194 22.7109 21.3607V21.2965C22.7135 21.2751 22.7135 21.2536 22.7109 21.2323C22.714 21.2128 22.714 21.1929 22.7109 21.1734C22.6401 20.9574 22.5243 20.7589 22.3711 20.591C22.2178 20.4231 22.0306 20.2896 21.8219 20.1993H21.7684L21.6881 20.1619L21.6077 20.1244C21.9008 20.0778 22.1803 19.9682 22.4271 19.8033C22.6108 19.6745 22.7634 19.5063 22.8737 19.3109C22.984 19.1155 23.0491 18.8979 23.0643 18.6741C23.0643 18.6099 23.0643 18.551 23.0643 18.4921C23.0661 18.2393 23.0012 17.9904 22.8762 17.7706C22.7512 17.5507 22.5704 17.3677 22.3521 17.2398H22.3146C22.109 17.1203 21.8844 17.037 21.6506 16.9937H21.5595H21.4096H15.6208L15.6904 16.8278C16.0389 15.6619 16.1176 14.4321 15.9206 13.2314C15.8939 13.012 15.8564 12.7818 15.8135 12.5464C15.7846 12.4045 15.7452 12.265 15.6957 12.1289C15.6274 11.8471 15.4703 11.5946 15.2476 11.4086C15.025 11.2227 14.7484 11.1131 14.4587 11.0961C14.2835 11.1015 14.1117 11.1462 13.956 11.2268C13.8003 11.3073 13.6646 11.4218 13.5591 11.5617C13.4528 11.698 13.3861 11.8609 13.3663 12.0326V12.1771C13.2929 12.7707 13.1892 13.3601 13.0557 13.9432C12.7664 14.8694 12.2826 15.7234 11.6366 16.4478C11.4974 16.6137 11.3528 16.785 11.2028 16.9455C10.8105 17.3694 10.3901 17.7663 9.94438 18.1336C9.80496 18.2264 9.64727 18.2882 9.48192 18.315C9.31658 18.3418 9.14742 18.3328 8.98582 18.2888C7.9148 18.1229 6.36183 17.9463 5.20513 17.2506C5.14776 17.2162 5.09234 17.1787 5.03913 17.1382L4.94808 17.0847C4.01298 16.4758 3.19194 15.7077 2.52224 14.8155C2.16805 14.3406 1.85627 13.8357 1.59046 13.3063V13.2635C0.0481963 10.1756 -0.112453 6.25809 0.187431 2.99888V2.96677C0.264775 2.15483 0.642464 1.40091 1.24661 0.852566C1.85076 0.30422 2.63791 0.000880631 3.45403 0.00188618H14.2124C24.9868 -0.147962 33.919 8.65029 33.919 19.4287Z" fill="#00BFBA"/>
</svg>
