<svg width="18" height="17" viewBox="0 0 18 17" fill="none" xmlns="http://www.w3.org/2000/svg">
<path d="M3.66665 6.9834H2.33333C1.875 6.9834 1.5 7.3584 1.5 7.81673V15.0001C1.5 15.4584 1.875 15.8334 2.33333 15.8334H3.66665C4.12498 15.8334 4.49998 15.4584 4.49998 15.0001V7.81673C4.49998 7.3584 4.12498 6.9834 3.66665 6.9834Z" stroke="#565859" stroke-width="1.5" stroke-linecap="round" stroke-linejoin="round"/>
<path d="M9.66665 4.3252H8.33333C7.875 4.3252 7.5 4.7002 7.5 5.15853V15.0002C7.5 15.4585 7.875 15.8335 8.33333 15.8335H9.66665C10.125 15.8335 10.5 15.4585 10.5 15.0002V5.15853C10.5 4.7002 10.125 4.3252 9.66665 4.3252Z" stroke="#565859" stroke-width="1.5" stroke-linecap="round" stroke-linejoin="round"/>
<path d="M15.6666 1.66675H14.3333C13.875 1.66675 13.5 2.04175 13.5 2.50008V15.0001C13.5 15.4584 13.875 15.8334 14.3333 15.8334H15.6666C16.125 15.8334 16.5 15.4584 16.5 15.0001V2.50008C16.5 2.04175 16.125 1.66675 15.6666 1.66675Z" stroke="#565859" stroke-width="1.5" stroke-linecap="round" stroke-linejoin="round"/>
</svg>
