<svg width="20" height="20" viewBox="0 0 20 20" fill="none" xmlns="http://www.w3.org/2000/svg">
<path d="M18.3327 13.95V3.89162C18.3327 2.89162 17.516 2.14995 16.5243 2.23329H16.4743C14.7243 2.38329 12.066 3.27495 10.5827 4.20829L10.441 4.29995C10.1993 4.44995 9.79935 4.44995 9.55768 4.29995L9.34935 4.17495C7.86602 3.24995 5.21602 2.36662 3.46602 2.22495C2.47435 2.14162 1.66602 2.89162 1.66602 3.88329V13.95C1.66602 14.75 2.31602 15.5 3.11602 15.6L3.35768 15.6333C5.16602 15.875 7.95768 16.7916 9.55768 17.6666L9.59102 17.6833C9.81602 17.8083 10.1743 17.8083 10.391 17.6833C11.991 16.8 14.791 15.875 16.6077 15.6333L16.8827 15.6C17.6827 15.5 18.3327 14.75 18.3327 13.95Z" stroke="#565859" stroke-width="1.5" stroke-linecap="round" stroke-linejoin="round"/>
<path d="M10 4.57495V17.075" stroke="#565859" stroke-width="1.5" stroke-linecap="round" stroke-linejoin="round"/>
<path d="M6.45898 7.07495H4.58398" stroke="#565859" stroke-width="1.5" stroke-linecap="round" stroke-linejoin="round"/>
<path d="M7.08398 9.57495H4.58398" stroke="#565859" stroke-width="1.5" stroke-linecap="round" stroke-linejoin="round"/>
</svg>
