<svg width="20" height="20" viewBox="0 0 20 20" fill="none" xmlns="http://www.w3.org/2000/svg">
<path d="M6.66602 1.66675V4.16675" stroke="#565859" stroke-width="1.5" stroke-miterlimit="10" stroke-linecap="round" stroke-linejoin="round"/>
<path d="M13.334 1.66675V4.16675" stroke="#565859" stroke-width="1.5" stroke-miterlimit="10" stroke-linecap="round" stroke-linejoin="round"/>
<path d="M2.91602 7.57495H17.0827" stroke="#565859" stroke-width="1.5" stroke-miterlimit="10" stroke-linecap="round" stroke-linejoin="round"/>
<path d="M14.9993 19.1667C16.8403 19.1667 18.3327 17.6743 18.3327 15.8333C18.3327 13.9924 16.8403 12.5 14.9993 12.5C13.1584 12.5 11.666 13.9924 11.666 15.8333C11.666 17.6743 13.1584 19.1667 14.9993 19.1667Z" stroke="#565859" stroke-width="1.5" stroke-miterlimit="10" stroke-linecap="round" stroke-linejoin="round"/>
<path d="M16.2412 15.875H13.7578" stroke="#565859" stroke-width="1.5" stroke-miterlimit="10" stroke-linecap="round" stroke-linejoin="round"/>
<path d="M15 14.6584V17.1501" stroke="#565859" stroke-width="1.5" stroke-miterlimit="10" stroke-linecap="round" stroke-linejoin="round"/>
<path d="M17.5 7.08341V13.6334C16.8917 12.9417 16 12.5001 15 12.5001C13.1583 12.5001 11.6667 13.9917 11.6667 15.8334C11.6667 16.4584 11.8417 17.0501 12.15 17.5501C12.325 17.8501 12.55 18.1167 12.8083 18.3334H6.66667C3.75 18.3334 2.5 16.6667 2.5 14.1667V7.08341C2.5 4.58341 3.75 2.91675 6.66667 2.91675H13.3333C16.25 2.91675 17.5 4.58341 17.5 7.08341Z" stroke="#565859" stroke-width="1.5" stroke-miterlimit="10" stroke-linecap="round" stroke-linejoin="round"/>
<path d="M9.99607 11.4167H10.0036" stroke="#565859" stroke-width="2" stroke-linecap="round" stroke-linejoin="round"/>
<path d="M6.91209 11.4167H6.91957" stroke="#565859" stroke-width="2" stroke-linecap="round" stroke-linejoin="round"/>
<path d="M6.91209 13.9167H6.91957" stroke="#565859" stroke-width="2" stroke-linecap="round" stroke-linejoin="round"/>
</svg>
