<svg width="30" height="31" viewBox="0 0 30 31" fill="none" xmlns="http://www.w3.org/2000/svg">
<path d="M27.4124 9.11603L23.1999 26.0286C22.8999 27.2911 21.7749 28.166 20.4749 28.166H4.04992C2.16242 28.166 0.812438 26.3159 1.37494 24.5034L6.63743 7.60358C6.99993 6.42858 8.08745 5.61597 9.31245 5.61597H24.6874C25.8749 5.61597 26.8624 6.34097 27.2749 7.34097C27.5124 7.87847 27.5624 8.49103 27.4124 9.11603Z" stroke="#0F1114" stroke-width="2" stroke-miterlimit="10"/>
<path d="M20 28.166H25.975C27.5875 28.166 28.85 26.8035 28.7375 25.191L27.5 8.16602" stroke="#0F1114" stroke-width="2" stroke-miterlimit="10" stroke-linecap="round" stroke-linejoin="round"/>
<path d="M12.0996 8.64114L13.3996 3.24121" stroke="#0F1114" stroke-width="2" stroke-miterlimit="10" stroke-linecap="round" stroke-linejoin="round"/>
<path d="M20.4746 8.65347L21.6496 3.22852" stroke="#0F1114" stroke-width="2" stroke-miterlimit="10" stroke-linecap="round" stroke-linejoin="round"/>
<path d="M9.625 15.666H19.625" stroke="#00BFBA" stroke-width="2" stroke-miterlimit="10" stroke-linecap="round" stroke-linejoin="round"/>
<path d="M8.375 20.666H18.375" stroke="#00BFBA" stroke-width="2" stroke-miterlimit="10" stroke-linecap="round" stroke-linejoin="round"/>
</svg>
