<svg width="20" height="20" viewBox="0 0 20 20" fill="none" xmlns="http://www.w3.org/2000/svg">
<path d="M11.0836 6.75837L12.1836 8.95837C12.3336 9.25837 12.7336 9.55837 13.067 9.60837L15.0586 9.9417C16.3336 10.1584 16.6336 11.075 15.717 11.9917L14.167 13.5417C13.9086 13.8 13.7586 14.3084 13.842 14.675L14.2836 16.6C14.6336 18.1167 13.8253 18.7084 12.4836 17.9167L10.617 16.8084C10.2753 16.6084 9.72531 16.6084 9.38364 16.8084L7.51695 17.9167C6.17529 18.7084 5.36695 18.1167 5.71695 16.6L6.15864 14.675C6.24198 14.3167 6.09196 13.8084 5.83363 13.5417L4.28364 11.9917C3.36698 11.075 3.66696 10.15 4.94196 9.9417L6.93364 9.60837C7.26697 9.55004 7.66697 9.25837 7.81697 8.95837L8.91697 6.75837C9.50864 5.56671 10.492 5.56671 11.0836 6.75837Z" stroke="#565859" stroke-width="1.5" stroke-linecap="round" stroke-linejoin="round"/>
<path d="M5 7.49996V1.66663" stroke="#565859" stroke-width="1.5" stroke-linecap="round" stroke-linejoin="round"/>
<path d="M15 7.49996V1.66663" stroke="#565859" stroke-width="1.5" stroke-linecap="round" stroke-linejoin="round"/>
<path d="M10 3.33329V1.66663" stroke="#565859" stroke-width="1.5" stroke-linecap="round" stroke-linejoin="round"/>
</svg>
